# xmcd
#
# Track frame offsets:
#	150
#	12382
#	23285
#	35817
#	46901
#	61380
#	73710
#	88772
#	100771
#	111477
#	123808
#	134486
#	147177
#	156763
#	170065
#	181956
#	195683
#	208457
#	220207
#	231438
#	242533
#	254747
#	266552
#	277729
#
# Disc length: 3882 seconds
#
# Revision: 0
# Processed by: cddbd v1.4PL0 Copyright (c) Steve Scherf et al.
# Submitted via: dBpowerAMP V4.0
#
DISCID=690f2818
DTITLE=Earl Bostic - Bostic Special Vol1
DYEAR=1900
DGENRE=Shag
TTITLE0=Flamingo
TTITLE1=Blue Moon
TTITLE2=Night and Day
TTITLE3=Laura
TTITLE4=You Go To My Head
TTITLE5=Moulin Rouge
TTITLE6=How Deep Is The Ocean
TTITLE7=Smoke Rings
TTITLE8=Long Ago and Far Away
TTITLE9=Tuxedo Junction
TTITLE10=Unchained Melody
TTITLE11=Melody Of Love
TTITLE12=Harlem Nocturne
TTITLE13=Love Letters In The Sand
TTITLE14=If I Loved You
TTITLE15=Serenade
TTITLE16=Song Of The Islands
TTITLE17=Sweet Lorraine
TTITLE18=Sunny Side Of The Street
TTITLE19=Stairway to the Stars
TTITLE20=Your Cheatin' Heart
TTITLE21=720 in the Books
TTITLE22=White Horse
TTITLE23=No Name Jive
EXTD=
EXTT0=
EXTT1=
EXTT2=
EXTT3=
EXTT4=
EXTT5=
EXTT6=
EXTT7=
EXTT8=
EXTT9=
EXTT10=
EXTT11=
EXTT12=
EXTT13=
EXTT14=
EXTT15=
EXTT16=
EXTT17=
EXTT18=
EXTT19=
EXTT20=
EXTT21=
EXTT22=
EXTT23=
PLAYORDER=
